<mxfile host="app.diagrams.net" modified="2023-11-08T16:15:20.793Z" agent="Mozilla/5.0 (Windows NT 10.0; Win64; x64) AppleWebKit/537.36 (KHTML, like Gecko) Chrome/119.0.0.0 Safari/537.36" etag="Po_4ZbC-PaxLblPuh91q" version="22.0.8" type="device">
  <diagram name="Page-1" id="J7M9Yyysn54q5sLT97oD">
    <mxGraphModel dx="565" dy="339" grid="1" gridSize="10" guides="1" tooltips="1" connect="1" arrows="1" fold="1" page="1" pageScale="1" pageWidth="850" pageHeight="1100" math="0" shadow="0">
      <root>
        <mxCell id="0" />
        <mxCell id="1" parent="0" />
        <mxCell id="gmrLxwrF4Pg0KrM570E6-1" value="Rețea de comunicare" style="ellipse;whiteSpace=wrap;html=1;" vertex="1" parent="1">
          <mxGeometry x="320" y="180" width="120" height="80" as="geometry" />
        </mxCell>
        <mxCell id="gmrLxwrF4Pg0KrM570E6-2" value="" style="endArrow=none;html=1;rounded=0;exitX=1;exitY=0.5;exitDx=0;exitDy=0;" edge="1" target="gmrLxwrF4Pg0KrM570E6-3" parent="1" source="gmrLxwrF4Pg0KrM570E6-5">
          <mxGeometry width="50" height="50" relative="1" as="geometry">
            <mxPoint x="170" y="280" as="sourcePoint" />
            <mxPoint x="340" y="390" as="targetPoint" />
          </mxGeometry>
        </mxCell>
        <mxCell id="gmrLxwrF4Pg0KrM570E6-3" value="" style="ellipse;whiteSpace=wrap;html=1;aspect=fixed;" vertex="1" parent="1">
          <mxGeometry x="310" y="215" width="10" height="10" as="geometry" />
        </mxCell>
        <mxCell id="gmrLxwrF4Pg0KrM570E6-5" value="Chișinău" style="rounded=0;whiteSpace=wrap;html=1;" vertex="1" parent="1">
          <mxGeometry x="250" y="210" width="50" height="20" as="geometry" />
        </mxCell>
        <mxCell id="gmrLxwrF4Pg0KrM570E6-6" value="" style="strokeWidth=2;html=1;shape=mxgraph.flowchart.database;whiteSpace=wrap;" vertex="1" parent="1">
          <mxGeometry x="200" y="200" width="30" height="40" as="geometry" />
        </mxCell>
        <mxCell id="gmrLxwrF4Pg0KrM570E6-7" value="" style="endArrow=none;html=1;rounded=0;entryX=0;entryY=0.5;entryDx=0;entryDy=0;exitX=1;exitY=0.5;exitDx=0;exitDy=0;exitPerimeter=0;" edge="1" parent="1" source="gmrLxwrF4Pg0KrM570E6-6" target="gmrLxwrF4Pg0KrM570E6-5">
          <mxGeometry width="50" height="50" relative="1" as="geometry">
            <mxPoint x="210" y="300" as="sourcePoint" />
            <mxPoint x="260" y="250" as="targetPoint" />
          </mxGeometry>
        </mxCell>
        <mxCell id="gmrLxwrF4Pg0KrM570E6-8" value="&lt;font color=&quot;#ff66ff&quot;&gt;Chișinău clienții&lt;/font&gt;&lt;br&gt;&lt;font color=&quot;#ff66ff&quot;&gt;Chișinău foi&lt;/font&gt;&lt;br&gt;&lt;font color=&quot;#ff66ff&quot;&gt;Chișinău cumpărături&lt;/font&gt;&lt;br&gt;&lt;font color=&quot;#009900&quot;&gt;Bălți foi (copie)&lt;br&gt;Bălți clienți (link)&lt;br&gt;&lt;br&gt;&lt;/font&gt;" style="rounded=0;whiteSpace=wrap;html=1;align=left;verticalAlign=top;" vertex="1" parent="1">
          <mxGeometry x="200" y="250" width="120" height="100" as="geometry" />
        </mxCell>
        <mxCell id="gmrLxwrF4Pg0KrM570E6-9" value="&lt;font color=&quot;#009900&quot;&gt;Bălți clienții&lt;br&gt;Bălți foi&lt;br&gt;Bălți&amp;nbsp;cumpărături&lt;br&gt;&lt;/font&gt;&lt;font color=&quot;#ff66ff&quot;&gt;Chișinău foi (copie)&lt;br&gt;Chișinău clienți (link)&lt;/font&gt;" style="rounded=0;whiteSpace=wrap;html=1;align=left;verticalAlign=top;" vertex="1" parent="1">
          <mxGeometry x="465" y="250" width="120" height="100" as="geometry" />
        </mxCell>
        <mxCell id="gmrLxwrF4Pg0KrM570E6-13" value="" style="strokeWidth=2;html=1;shape=mxgraph.flowchart.database;whiteSpace=wrap;" vertex="1" parent="1">
          <mxGeometry x="530" y="200" width="30" height="40" as="geometry" />
        </mxCell>
        <mxCell id="gmrLxwrF4Pg0KrM570E6-14" value="" style="endArrow=none;html=1;rounded=0;entryX=1;entryY=0.5;entryDx=0;entryDy=0;exitX=0;exitY=0.5;exitDx=0;exitDy=0;exitPerimeter=0;" edge="1" parent="1" source="gmrLxwrF4Pg0KrM570E6-13" target="gmrLxwrF4Pg0KrM570E6-12">
          <mxGeometry width="50" height="50" relative="1" as="geometry">
            <mxPoint x="460" y="290" as="sourcePoint" />
            <mxPoint x="510" y="240" as="targetPoint" />
          </mxGeometry>
        </mxCell>
        <mxCell id="gmrLxwrF4Pg0KrM570E6-12" value="Bălți" style="rounded=0;whiteSpace=wrap;html=1;" vertex="1" parent="1">
          <mxGeometry x="465" y="210" width="50" height="20" as="geometry" />
        </mxCell>
        <mxCell id="gmrLxwrF4Pg0KrM570E6-10" value="" style="endArrow=none;html=1;rounded=0;exitX=0;exitY=0.5;exitDx=0;exitDy=0;" edge="1" parent="1" source="gmrLxwrF4Pg0KrM570E6-12" target="gmrLxwrF4Pg0KrM570E6-11">
          <mxGeometry width="50" height="50" relative="1" as="geometry">
            <mxPoint x="420" y="270" as="sourcePoint" />
            <mxPoint x="590" y="380" as="targetPoint" />
          </mxGeometry>
        </mxCell>
        <mxCell id="gmrLxwrF4Pg0KrM570E6-11" value="" style="ellipse;whiteSpace=wrap;html=1;aspect=fixed;" vertex="1" parent="1">
          <mxGeometry x="440" y="215" width="10" height="10" as="geometry" />
        </mxCell>
      </root>
    </mxGraphModel>
  </diagram>
</mxfile>
